<!DOCTYPE svg PUBLIC "-//W3C//DTD SVG 20010904//EN" "http://www.w3.org/TR/2001/REC-SVG-20010904/DTD/svg10.dtd">
<svg version="1.0" xmlns="http://www.w3.org/2000/svg" width="1600px" height="1600px" viewBox="0 0 16000 16000" preserveAspectRatio="xMidYMid meet">
<g id="layer101" fill="#000000" stroke="none">
 <path d="M1660 11391 c-92 -20 -186 -80 -260 -166 -75 -89 -80 -95 -80 -103 0 -4 -16 -46 -36 -92 l-36 -85 -1 -185 c-1 -166 2 -197 25 -300 15 -63 31 -128 37 -143 6 -16 11 -29 11 -31 0 -1 -34 -26 -76 -56 -42 -30 -84 -62 -94 -70 -10 -8 -31 -24 -46 -35 -42 -31 -308 -237 -314 -244 -3 -3 -27 -24 -55 -46 -27 -22 -55 -44 -61 -50 -7 -5 -41 -35 -77 -65 -56 -47 -65 -59 -60 -80 5 -25 42 -134 61 -180 6 -14 27 -69 48 -122 20 -54 42 -98 48 -98 6 0 43 30 81 66 188 176 276 257 345 315 41 35 89 76 105 90 84 74 211 179 218 179 4 0 7 -5 7 -11 0 -11 25 -78 85 -226 18 -45 29 -83 25 -85 -36 -13 -590 -552 -590 -573 0 -8 16 -47 36 -87 105 -214 150 -300 158 -305 5 -3 25 12 43 33 19 21 65 73 103 114 37 41 85 95 106 119 88 98 308 321 315 319 4 -2 45 -77 91 -168 47 -91 94 -181 105 -200 61 -108 96 -169 116 -201 12 -19 35 -57 52 -85 36 -61 222 -339 250 -375 11 -14 27 -36 35 -49 48 -73 341 -441 400 -501 8 -9 42 -46 74 -83 33 -37 66 -66 74 -64 8 2 33 39 56 83 55 105 95 178 168 306 57 99 62 105 77 89 9 -9 31 -33 49 -52 l33 -35 -29 -54 c-93 -173 -117 -219 -178 -340 l-67 -133 142 -137 c79 -76 148 -135 155 -133 6 3 31 51 55 107 24 56 75 167 113 246 37 79 68 147 68 152 0 17 16 8 64 -36 l49 -44 -73 -168 c-39 -92 -81 -190 -92 -218 -12 -27 -27 -63 -34 -80 -32 -76 -32 -78 48 -145 109 -92 159 -133 200 -164 l38 -28 9 23 c26 68 43 113 76 209 20 58 47 132 60 165 13 33 36 92 51 130 19 50 27 88 27 135 0 91 -28 145 -115 228 -39 37 -136 130 -215 207 -150 146 -185 169 -240 163 -33 -4 -33 -4 -33 39 0 65 -27 114 -126 229 -101 117 -111 124 -171 124 -44 -1 -74 -15 -100 -50 -33 -43 -133 -190 -133 -195 0 -3 -15 -27 -32 -53 -18 -26 -38 -57 -44 -67 -6 -11 -15 -20 -20 -20 -11 1 -101 114 -197 246 l-68 94 38 6 c86 12 172 72 223 154 47 76 60 124 60 227 0 113 -19 180 -81 287 -144 249 -344 346 -532 258 -60 -28 -167 -126 -167 -153 0 -32 -23 3 -89 138 l-70 141 48 46 c73 69 250 232 301 277 92 81 85 66 64 121 -9 26 -20 53 -24 58 -4 6 -15 33 -25 60 -10 28 -21 55 -25 60 -3 6 -13 30 -20 54 -23 72 -17 74 -226 -93 -55 -44 -112 -92 -129 -107 -16 -14 -51 -45 -77 -69 -42 -37 -48 -40 -54 -24 -3 11 -10 30 -16 44 -6 14 -14 36 -18 50 -5 14 -22 63 -39 109 -17 46 -31 85 -31 87 0 2 63 66 140 144 77 78 140 145 140 150 0 4 33 57 73 117 54 81 77 126 90 178 10 39 28 96 39 127 18 52 20 72 13 200 -9 195 -38 286 -120 377 -55 61 -104 82 -202 86 -48 2 -104 1 -123 -4z m194 -371 c31 -11 66 -65 66 -100 0 -35 -28 -107 -67 -168 -36 -58 -193 -220 -263 -273 -25 -18 -47 -36 -50 -40 -3 -3 -15 -11 -28 -18 -18 -9 -23 -9 -27 1 -41 124 -31 252 30 386 49 108 114 166 224 202 66 22 81 23 115 10z m668 -2099 c13 -11 33 -35 43 -55 19 -35 19 -36 0 -60 -34 -42 -194 -240 -210 -261 -15 -20 -16 -20 -33 4 -18 25 -52 79 -77 124 -15 27 -15 30 8 60 14 18 62 71 107 120 89 95 114 105 162 68z"/>
 <path d="M14365 11186 c-84 -38 -125 -114 -165 -311 -12 -60 -30 -139 -40 -175 -10 -36 -26 -94 -35 -130 -9 -36 -25 -90 -35 -120 -19 -59 -42 -138 -60 -208 -15 -60 6 -172 34 -172 6 0 -11 -13 -39 -29 -27 -16 -60 -39 -72 -52 -19 -22 -83 -139 -83 -154 0 -9 -91 -219 -101 -230 -10 -13 -35 -90 -42 -131 -4 -20 0 -41 13 -62 l19 -31 -42 -20 c-69 -32 -102 -68 -167 -186 -49 -89 -53 -96 -81 -140 -134 -207 -136 -269 -9 -326 25 -11 63 -24 85 -29 22 -4 93 -22 157 -39 64 -17 126 -31 137 -31 12 0 21 -2 21 -4 0 -5 -57 -93 -90 -141 -11 -16 -53 -77 -92 -134 l-71 -104 -12 31 c-23 52 -86 113 -155 145 -61 30 -72 32 -172 31 -101 0 -109 -2 -180 -36 -195 -97 -357 -331 -358 -516 0 -51 -1 -53 -22 -46 -37 12 -106 6 -151 -14 -41 -18 -121 -89 -304 -268 l-93 -91 0 -55 c0 -34 15 -107 40 -194 66 -229 80 -276 95 -342 8 -34 17 -67 21 -74 5 -7 2 -8 -7 -3 -22 13 -238 157 -296 198 -29 20 -77 53 -105 74 -29 20 -65 46 -80 59 -50 41 -61 39 -150 -23 -45 -32 -109 -76 -142 -98 -33 -22 -61 -44 -62 -50 -3 -9 132 -119 376 -305 58 -44 110 -84 115 -88 17 -14 230 -164 340 -241 92 -63 110 -72 128 -63 40 19 312 238 315 252 1 10 -29 33 -80 62 -159 90 -322 197 -307 202 31 11 110 39 224 78 112 38 128 41 235 42 105 1 118 -1 153 -23 57 -35 97 -95 97 -144 0 -61 -32 -115 -112 -193 -97 -93 -416 -342 -594 -464 -201 -137 -296 -198 -341 -222 -26 -12 -29 -31 -10 -45 21 -16 271 -123 288 -123 16 0 171 101 309 201 41 30 106 77 144 104 66 48 192 147 285 224 24 20 73 61 110 91 77 63 226 214 282 283 21 26 56 85 78 131 39 79 41 88 41 178 l0 95 -51 77 c-28 42 -55 76 -59 76 -5 0 -36 16 -68 35 -59 34 -61 35 -183 36 -141 2 -247 -15 -404 -66 -168 -54 -141 -71 -209 133 -32 97 -63 189 -69 205 -10 26 -6 32 113 151 l124 123 24 -36 c35 -52 72 -90 114 -117 131 -84 271 -85 428 -3 100 52 290 271 513 589 28 41 171 254 182 272 5 9 21 35 35 57 13 23 30 39 36 37 7 -3 30 -8 51 -11 21 -4 79 -15 128 -25 144 -30 316 -59 363 -62 l43 -3 35 65 c20 36 50 92 69 125 63 114 85 158 85 170 0 16 -21 21 -145 34 -153 17 -328 40 -460 62 -66 11 -163 27 -215 36 -52 8 -134 24 -181 34 -48 10 -97 19 -110 19 -45 0 -52 13 -30 54 46 80 59 105 106 194 28 53 55 92 63 92 9 0 43 -4 76 -9 211 -32 682 -78 876 -86 85 -3 169 -8 185 -11 30 -5 32 -4 64 73 18 43 37 87 42 98 39 93 78 202 79 222 0 8 -104 12 -397 15 -284 3 -453 10 -590 23 l-192 19 16 35 c8 20 24 57 34 84 11 26 28 71 40 100 11 28 25 67 30 85 8 25 15 32 35 32 31 0 88 24 112 47 60 56 74 162 43 302 -12 51 -19 96 -15 100 3 3 34 6 68 6 53 0 70 -5 119 -35 31 -19 57 -37 57 -40 0 -3 -27 -21 -60 -40 -42 -24 -63 -42 -67 -60 -3 -14 -16 -58 -30 -98 -13 -40 -21 -77 -18 -83 4 -5 51 14 113 48 161 86 223 115 236 109 6 -4 29 -17 51 -31 22 -13 50 -24 61 -25 20 0 112 44 214 103 25 15 69 39 98 54 l54 28 -4 60 c-5 75 -30 129 -74 155 -27 18 -48 21 -121 19 l-88 -1 -112 75 c-181 121 -308 161 -397 127 -14 -5 -26 -7 -26 -4 0 2 9 42 19 87 26 110 51 238 51 260 0 21 -50 23 -95 3z m-1205 -3083 c36 -14 76 -29 90 -33 49 -16 161 -59 170 -65 10 -6 -33 -66 -93 -131 l-29 -32 -46 18 c-112 41 -244 105 -254 123 -15 28 -2 74 33 119 22 28 36 37 48 32 9 -3 45 -18 81 -31z"/>
 <path d="M5040 6709 c0 -12 -7 -47 -15 -78 -8 -31 -19 -86 -24 -122 -5 -35 -16 -104 -24 -154 -38 -223 -83 -572 -92 -702 l-6 -92 78 -37 c43 -20 114 -52 158 -71 44 -19 94 -41 110 -48 17 -8 33 -11 37 -7 4 4 12 100 18 212 18 368 56 739 75 746 29 11 244 -124 298 -187 89 -104 89 -210 0 -288 -74 -66 -95 -100 -90 -144 5 -39 27 -69 132 -182 116 -126 156 -264 100 -348 -53 -78 -124 -86 -285 -32 -58 20 -125 44 -150 54 -25 10 -85 36 -135 56 -154 63 -207 86 -305 132 -118 55 -395 195 -452 228 -93 53 -168 89 -174 82 -9 -8 15 -293 27 -324 4 -12 25 -31 46 -41 212 -109 382 -193 443 -220 41 -18 89 -39 105 -46 17 -8 50 -23 75 -33 25 -11 61 -27 81 -35 32 -15 142 -57 314 -123 33 -12 78 -28 100 -35 22 -7 63 -21 90 -31 156 -54 319 -77 422 -59 88 15 124 33 169 82 92 102 109 230 49 372 -6 13 5 9 41 -17 27 -19 63 -42 80 -50 37 -19 169 -53 242 -62 60 -8 59 -9 43 86 -5 30 -12 80 -14 112 -6 67 -10 66 115 38 143 -32 445 -77 455 -68 3 3 -4 52 -16 109 -48 227 -86 446 -78 454 3 3 36 1 74 -4 37 -6 118 -16 180 -23 l112 -12 11 -56 c7 -31 18 -78 25 -106 7 -27 23 -86 34 -130 11 -44 33 -125 47 -181 l26 -101 121 -7 c193 -10 287 -8 287 7 0 11 -25 93 -55 177 -11 31 -27 82 -71 230 -7 25 -20 66 -28 93 l-15 47 175 0 174 0 0 -74 c0 -201 106 -349 305 -426 54 -21 76 -23 215 -23 149 0 281 15 525 59 44 8 92 14 107 14 15 0 30 5 33 10 4 6 -13 45 -38 88 -83 145 -160 285 -204 370 -31 59 -25 72 32 72 29 0 136 19 249 45 70 16 59 24 136 -105 58 -96 91 -150 174 -279 69 -108 65 -107 226 -61 58 17 130 37 160 46 30 8 59 19 63 23 9 9 -1 41 -14 41 -5 0 -9 5 -9 11 0 6 -15 29 -34 52 -31 39 -91 123 -111 156 -4 8 -4 12 1 9 18 -9 80 -36 144 -63 36 -14 79 -32 95 -40 17 -7 59 -23 95 -35 75 -25 210 -30 279 -9 58 17 101 61 101 103 0 44 -49 136 -107 203 -46 52 -97 113 -171 202 l-32 39 77 31 c113 43 267 111 277 122 14 13 -32 58 -82 80 -80 35 -154 26 -322 -40 -74 -29 -157 -60 -205 -76 -123 -40 -151 -65 -149 -136 2 -53 20 -88 92 -182 25 -31 43 -60 40 -63 -4 -3 -86 34 -185 82 -98 47 -202 95 -232 105 -65 23 -150 24 -217 4 -27 -8 -58 -15 -69 -15 -37 -1 -49 -15 -37 -47 l10 -30 -36 19 c-44 22 -123 23 -218 4 -38 -8 -138 -25 -221 -37 -137 -20 -156 -25 -188 -51 -19 -16 -35 -38 -35 -49 0 -25 -3 -24 -51 10 -87 64 -222 82 -309 42 -48 -21 -116 -82 -125 -112 -5 -15 -12 -11 -45 24 -55 60 -109 77 -245 77 -60 0 -161 5 -223 10 -131 12 -191 2 -222 -37 l-19 -24 -54 44 c-52 42 -57 44 -188 66 -74 12 -173 29 -221 38 -172 31 -233 8 -257 -98 -14 -57 -11 -96 20 -342 6 -44 9 -81 7 -82 -5 -5 -142 23 -174 35 -20 8 -24 16 -24 52 0 46 -35 293 -44 318 -4 8 -21 25 -39 36 -35 23 -155 59 -165 49 -6 -6 15 -348 25 -383 3 -15 1 -22 -8 -22 -35 0 -93 -24 -124 -51 -45 -40 -68 -102 -63 -173 1 -30 1 -52 -3 -48 -65 84 -95 119 -155 181 -67 70 -70 76 -54 90 30 28 87 105 111 151 20 39 23 60 23 155 l0 110 -41 71 c-44 74 -141 173 -235 241 -95 67 -129 87 -298 166 -69 32 -196 94 -283 138 -87 43 -162 79 -167 79 -6 0 -10 -9 -10 -21z m3692 -951 c9 -18 29 -60 44 -93 15 -33 42 -93 61 -134 19 -40 33 -74 31 -76 -3 -3 -164 -25 -183 -25 -7 0 -15 8 -18 18 -3 9 -15 42 -27 72 -37 95 -61 180 -58 203 4 28 63 67 102 67 25 0 35 -6 48 -32z"/>
 <path d="M7756 5039 c-116 -29 -216 -148 -216 -259 0 -70 53 -159 123 -206 114 -75 301 -72 402 8 48 39 65 60 87 113 49 116 -16 262 -146 325 -54 26 -184 36 -250 19z"/>
 </g>

</svg>